<?xml version="1.0" standalone="no"?>
<!DOCTYPE svg PUBLIC "-//W3C//DTD SVG 20010904//EN"
 "http://www.w3.org/TR/2001/REC-SVG-20010904/DTD/svg10.dtd">
<svg version="1.0" xmlns="http://www.w3.org/2000/svg"
 width="915.000000pt" height="1181.000000pt" viewBox="0 0 915.000000 1181.000000"
 preserveAspectRatio="xMidYMid meet">
<metadata>
Created by potrace 1.15, written by Peter Selinger 2001-2017
</metadata>
<g transform="translate(0.000000,1181.000000) scale(0.100000,-0.100000)"
fill="#000000" stroke="none">
<path d="M5678 11655 c-2 -3 -69 -14 -149 -25 -79 -11 -184 -29 -234 -40 -235
-50 -283 -61 -330 -79 -27 -10 -108 -40 -180 -66 -71 -26 -143 -53 -160 -61
-16 -7 -66 -27 -110 -44 -146 -57 -301 -131 -395 -189 -160 -98 -330 -220
-426 -306 -12 -11 -52 -46 -88 -79 -73 -64 -243 -237 -297 -301 -19 -22 -39
-45 -45 -52 -8 -9 -36 -5 -115 14 -57 14 -120 27 -139 30 -19 2 -80 18 -135
34 -55 16 -167 47 -250 69 -82 22 -172 49 -200 60 -27 11 -70 24 -93 29 -82
18 -101 -31 -82 -210 21 -200 120 -543 215 -744 25 -53 62 -129 78 -160 14
-27 14 -38 1 -110 -17 -88 -13 -282 7 -390 13 -71 63 -206 95 -255 17 -27 24
-56 28 -125 21 -299 61 -478 150 -669 20 -44 36 -80 36 -81 0 -2 -41 12 -90
31 -106 40 -135 42 -181 11 -32 -22 -34 -26 -37 -90 -2 -58 1 -73 24 -112 29
-50 64 -80 134 -115 56 -29 165 -60 207 -60 38 0 63 -9 63 -22 0 -17 60 -97
118 -157 131 -134 366 -268 599 -342 70 -22 132 -42 137 -43 5 -1 -24 -13 -65
-26 -81 -25 -212 -88 -244 -117 -151 -136 -180 -155 -437 -286 -240 -123 -322
-157 -378 -157 -67 0 -230 90 -357 197 l-51 44 15 37 c28 66 73 255 73 307 l0
50 -87 82 -87 81 17 54 c9 30 17 80 17 110 0 54 -2 57 -57 115 -53 54 -86 73
-169 98 -9 3 -8 20 2 67 18 86 17 275 -3 373 -42 211 -36 225 189 524 58 76
103 134 146 186 108 129 113 144 77 215 -25 50 -99 109 -136 110 -9 0 -34 7
-55 16 -44 19 -119 14 -224 -13 -14 -3 -32 -7 -40 -9 -8 -2 -51 -22 -97 -45
-144 -74 -236 -195 -291 -384 -11 -38 -27 -96 -36 -127 -9 -32 -20 -60 -25
-62 -5 -3 -11 22 -15 56 -3 34 -14 75 -24 92 -18 33 -87 72 -177 101 -50 16
-63 21 -120 45 -16 7 -67 28 -113 46 l-84 34 -46 -20 c-26 -12 -67 -34 -92
-50 -25 -15 -85 -45 -135 -66 -176 -75 -211 -110 -221 -225 -5 -64 -10 -79
-23 -79 -49 0 -158 -85 -192 -150 -20 -38 -24 -58 -22 -125 l3 -80 -41 -25
c-22 -14 -58 -51 -80 -84 -38 -57 -39 -60 -39 -147 0 -48 5 -91 10 -94 6 -3
10 -14 10 -24 0 -9 13 -44 30 -76 l30 -58 -25 -22 c-34 -33 -41 -84 -19 -153
9 -31 17 -58 16 -60 -2 -1 13 -33 33 -70 19 -38 35 -73 35 -78 0 -17 77 -128
111 -161 19 -17 66 -46 104 -63 39 -18 85 -44 103 -57 18 -14 74 -44 125 -68
79 -38 105 -45 177 -50 146 -10 150 -12 150 -46 0 -56 25 -86 103 -124 41 -19
89 -38 107 -41 30 -6 36 -15 80 -109 81 -174 115 -188 442 -190 215 -1 229 -3
250 -22 114 -103 559 -292 635 -270 89 25 235 88 367 157 l159 82 -7 -44 c-7
-46 7 -213 25 -312 28 -150 120 -341 222 -462 20 -25 37 -49 37 -53 0 -5 10
-19 23 -32 49 -51 107 -137 140 -207 20 -40 40 -78 45 -85 5 -7 35 -75 65
-152 48 -123 63 -168 73 -211 1 -7 13 -52 27 -100 14 -49 28 -107 32 -129 3
-22 13 -69 21 -105 9 -36 17 -74 20 -85 2 -11 15 -74 30 -140 22 -102 59 -285
78 -387 l5 -28 -72 -1 c-161 -1 -272 -54 -403 -192 -87 -92 -103 -125 -89
-185 10 -46 69 -107 133 -139 56 -27 58 -30 45 -49 -7 -12 -58 -61 -113 -109
-79 -70 -100 -94 -100 -115 0 -39 31 -119 69 -178 18 -29 32 -54 30 -56 -2 -1
-40 -8 -84 -14 -125 -19 -312 -59 -436 -95 -97 -28 -131 -46 -173 -94 -16 -18
-34 -33 -41 -33 -7 0 -52 -18 -101 -41 -49 -23 -107 -49 -129 -59 -315 -139
-476 -239 -617 -382 -185 -188 -238 -294 -283 -567 -22 -139 133 -239 503
-326 198 -47 297 -56 636 -62 318 -5 478 3 761 39 50 6 97 12 105 13 8 1 40 7
70 13 64 14 374 72 440 82 56 9 330 83 385 104 22 8 48 15 57 16 10 0 33 8 52
17 l35 16 63 -53 c64 -55 72 -63 213 -194 227 -210 608 -460 870 -569 33 -14
110 -46 170 -71 188 -79 411 -150 565 -180 175 -35 235 -40 510 -42 l285 -3
110 33 c235 71 310 111 374 201 38 53 54 127 47 215 -3 36 -8 103 -11 150 -6
80 -28 183 -44 205 -4 6 -13 30 -20 55 -27 92 -99 206 -209 330 -78 87 -242
242 -289 271 -18 12 -33 29 -33 38 0 55 -158 239 -335 390 -191 165 -287 221
-390 228 -42 4 -80 13 -95 23 -14 10 -36 21 -50 25 -14 4 -43 20 -65 35 -22
15 -55 35 -74 44 -33 17 -33 18 -12 32 52 37 78 162 47 222 -8 16 -39 44 -68
63 -78 49 -137 99 -163 137 l-23 34 40 36 c40 36 40 37 35 97 -11 123 -83 254
-171 314 -130 87 -402 155 -660 164 l-58 2 -40 100 c-21 55 -48 118 -58 140
-31 66 -70 166 -90 230 -18 60 -122 332 -139 363 -8 15 -1 17 63 17 39 0 77
-4 85 -9 15 -10 123 -49 289 -106 139 -48 412 -102 412 -82 0 5 -54 47 -121
93 -66 46 -170 122 -229 169 l-108 85 45 23 c33 17 49 34 64 65 22 49 25 124
5 152 -12 18 -10 23 25 57 l40 36 15 -37 c23 -53 74 -191 85 -231 24 -83 53
-150 63 -147 15 5 43 92 54 172 15 99 50 314 59 355 6 24 14 36 28 38 27 5 72
57 80 92 4 17 11 32 16 35 5 4 9 14 9 23 0 9 5 33 10 53 8 30 18 39 62 59 29
12 62 27 74 32 11 5 41 27 67 49 55 47 65 83 48 167 -7 31 -14 68 -17 82 -3
14 -21 64 -40 112 -18 49 -34 95 -34 104 0 9 13 35 28 58 55 81 130 242 145
311 18 80 9 171 -21 215 -9 14 -19 30 -22 37 -3 6 -35 38 -72 70 -74 66 -200
140 -298 178 -132 50 -507 188 -556 205 -65 23 -124 53 -160 83 -16 13 -51 36
-77 51 -27 15 -46 30 -43 34 13 12 241 1 363 -17 202 -31 399 -90 548 -163 71
-35 189 -100 195 -107 3 -3 32 -24 65 -45 161 -105 346 -262 491 -416 53 -56
164 -194 164 -204 0 -3 31 -50 70 -104 77 -111 227 -374 254 -448 10 -27 24
-63 31 -79 24 -54 45 -168 48 -259 2 -101 17 -122 43 -59 8 21 28 65 43 98 77
165 154 455 175 655 3 30 10 84 16 120 24 153 21 629 -5 850 -28 236 -105 525
-198 745 -71 168 -81 191 -102 225 -12 19 -25 40 -28 47 -6 9 3 9 35 -1 24 -8
88 -26 143 -42 144 -40 279 -95 453 -184 134 -69 319 -180 407 -243 232 -168
479 -410 622 -610 58 -81 117 -191 125 -231 8 -50 25 -17 43 86 27 158 34 677
10 848 -60 440 -110 655 -226 980 -55 155 -127 287 -298 544 -25 38 -50 76
-56 85 -5 9 -12 18 -15 21 -3 3 -11 17 -19 32 -12 23 -34 52 -107 141 -8 10
-51 62 -95 117 -44 54 -126 141 -182 192 -56 50 -115 104 -132 120 -101 93
-127 114 -189 156 -132 91 -166 111 -268 167 -57 31 -107 60 -112 65 -20 20
253 187 374 229 30 10 114 41 185 68 219 84 273 97 530 128 205 25 419 17 598
-21 19 -4 27 -2 27 8 0 16 -93 114 -169 178 -29 25 -59 50 -65 57 -86 81 -386
300 -531 386 -249 150 -553 275 -895 368 -299 81 -433 113 -575 134 -60 9
-135 20 -165 25 -54 10 -903 14 -912 5z m672 -25 c375 -19 565 -55 1045 -195
370 -109 608 -212 877 -381 178 -111 420 -298 593 -457 l70 -65 -85 15 c-63
11 -138 13 -285 10 -250 -5 -447 -32 -590 -81 -13 -5 -11 -2 5 7 24 15 184 61
245 71 16 3 75 15 130 26 55 11 150 28 210 38 66 10 110 22 110 29 0 6 -29 35
-65 63 -86 69 -329 250 -336 250 -3 0 -24 13 -48 29 -73 51 -266 147 -406 204
-145 59 -428 157 -452 157 -8 0 -74 18 -146 40 -73 21 -151 42 -175 45 -23 4
-78 15 -122 25 -145 34 -411 65 -620 72 -49 2 -209 3 -355 2 -274 -1 -368 -10
-575 -55 -425 -92 -630 -171 -1075 -411 -322 -175 -597 -401 -855 -703 -99
-117 -123 -148 -231 -305 -94 -138 -274 -498 -274 -550 0 -7 -18 5 -40 27
l-41 40 40 117 c56 163 84 224 166 356 206 334 537 698 815 895 280 199 395
263 665 369 94 37 202 80 241 96 162 66 312 109 574 164 257 54 624 74 990 56z
m-359 -417 c16 -40 31 -137 35 -218 15 -348 17 -341 -22 -76 -8 58 -23 124
-34 148 -30 68 -55 63 -311 -60 -125 -59 -203 -102 -404 -222 -44 -26 -165
-107 -268 -179 -104 -72 -196 -135 -204 -141 -9 -5 -56 -36 -105 -67 -49 -32
-91 -58 -95 -58 -11 0 166 160 263 238 142 113 510 372 529 372 4 0 19 8 33
19 112 79 499 265 565 270 4 1 12 -11 18 -26z m-212 -348 c37 -11 46 -51 46
-204 0 -121 -14 -338 -30 -476 -14 -117 -40 -285 -44 -285 -4 0 -15 14 -26 30
-19 29 -122 122 -182 165 -59 42 -251 147 -308 170 -197 76 -279 105 -302 105
-26 0 -26 0 -7 21 28 32 144 118 389 291 87 61 237 138 330 169 76 26 93 27
134 14z m-3327 -289 c73 -24 159 -49 191 -56 63 -14 91 -35 35 -26 -18 3 -79
8 -134 11 -98 6 -102 6 -118 -16 -34 -49 -14 -185 58 -404 40 -120 137 -386
153 -417 9 -18 9 -29 3 -33 -6 -4 -23 -25 -37 -48 l-26 -41 -37 75 c-143 284
-269 716 -270 925 0 49 12 74 36 74 7 0 73 -20 146 -44z m4308 -351 c255 -62
365 -97 455 -145 287 -153 361 -201 542 -351 132 -109 323 -293 371 -358 14
-20 48 -61 73 -91 45 -53 259 -353 259 -363 0 -3 24 -44 53 -92 125 -209 251
-516 312 -765 14 -58 30 -121 35 -140 43 -160 84 -427 95 -620 14 -253 0 -644
-24 -687 -4 -7 -20 15 -40 55 -50 98 -157 238 -285 370 -61 64 -102 110 -91
102 46 -33 215 -183 279 -246 68 -68 69 -68 76 -43 4 14 10 83 14 155 7 120
-1 215 -30 404 -29 178 -134 566 -211 775 -14 39 -47 129 -73 200 -46 127
-111 266 -185 395 -21 36 -48 84 -60 107 -13 23 -56 86 -96 140 -40 54 -84
114 -98 133 -37 50 -187 216 -321 353 -270 278 -534 448 -1001 645 -90 38
-181 75 -201 81 -98 32 2 22 152 -14z m-1945 -270 c71 -9 168 -40 223 -72 54
-31 187 -162 233 -229 31 -45 99 -177 99 -191 0 -5 -8 6 -19 22 -38 62 -160
192 -238 256 -147 118 -255 154 -433 146 -132 -6 -232 -39 -392 -129 -97 -54
-130 -80 -234 -183 -107 -106 -148 -156 -278 -344 -17 -25 -47 -76 -66 -113
-19 -38 -43 -78 -53 -90 l-17 -23 9 27 c23 64 135 277 182 347 182 268 359
415 632 525 73 30 142 49 217 60 25 3 43 2 135 -9z m-2112 -443 c28 -24 62
-106 115 -277 28 -88 68 -214 90 -280 23 -66 50 -158 61 -205 12 -47 32 -119
45 -160 13 -41 31 -102 41 -134 23 -76 91 -235 109 -255 8 -9 18 -29 22 -46 4
-16 13 -43 21 -58 19 -38 12 -42 -21 -16 -36 29 -76 91 -104 164 -34 87 -98
281 -115 345 -8 30 -26 100 -41 155 -15 55 -31 116 -35 135 -65 254 -127 384
-208 437 -22 15 -27 15 -58 0 -34 -16 -46 -40 -59 -122 -2 -16 -3 31 -2 105 2
101 7 145 20 176 26 62 73 76 119 36z m2157 -43 c138 -60 190 -109 272 -259
88 -161 132 -473 94 -673 -43 -227 -180 -483 -300 -561 -16 -10 -48 -36 -70
-56 -79 -73 -272 -203 -376 -254 l-105 -51 -100 2 c-94 2 -110 5 -260 59 -513
183 -608 207 -707 183 -28 -6 -65 -25 -84 -41 -40 -36 -56 -34 -203 15 -83 28
-96 36 -120 72 -55 81 -140 323 -172 490 -9 47 -13 156 -13 335 0 217 3 282
18 359 17 87 20 92 31 70 16 -29 70 -197 85 -259 5 -25 30 -119 54 -210 40
-150 43 -167 29 -182 -10 -11 -18 -44 -20 -85 -10 -134 80 -396 175 -510 96
-116 149 -78 107 77 -18 67 -18 65 -2 52 6 -5 23 -13 36 -17 13 -4 51 -25 85
-46 80 -51 127 -53 187 -6 61 46 65 54 226 447 159 391 329 698 472 854 157
172 301 241 491 232 79 -4 107 -10 170 -37z m-953 -385 c-40 -80 -119 -309
-183 -534 -40 -139 -96 -294 -156 -435 -31 -71 -64 -112 -107 -134 -36 -19
-39 -19 -89 -2 -59 20 -105 59 -132 111 -23 45 -58 165 -76 255 -14 76 -17
255 -5 320 7 38 8 36 15 -35 12 -128 27 -202 58 -295 39 -115 59 -154 101
-199 44 -46 76 -47 113 -3 39 46 124 231 138 303 16 78 156 433 202 512 69
119 141 218 151 208 3 -2 -11 -35 -30 -72z m-1636 -34 c45 -13 113 -61 136
-96 28 -44 22 -86 -20 -136 -106 -123 -289 -352 -326 -406 -23 -33 -53 -89
-67 -124 -29 -73 -29 -110 6 -298 31 -170 16 -295 -52 -438 -40 -84 -114 -171
-198 -235 -19 -15 -29 -27 -22 -27 23 0 73 31 119 73 l44 41 -7 -30 c-14 -63
-83 -213 -129 -284 -66 -102 -144 -176 -247 -233 -171 -95 -361 -124 -638 -97
-102 10 -183 41 -296 116 -28 19 -80 47 -115 64 -78 36 -100 53 -135 105 -41
61 -132 246 -144 296 -23 89 -23 94 5 127 15 18 31 32 36 32 5 0 31 17 59 38
61 46 170 102 200 102 11 0 69 -21 128 -46 59 -25 130 -55 157 -66 28 -11 58
-27 69 -36 19 -18 66 -107 66 -127 0 -6 20 -50 45 -97 25 -48 45 -100 45 -115
0 -49 -40 -106 -92 -131 -52 -26 -143 -33 -190 -14 -36 15 -103 76 -129 118
-22 37 -89 78 -117 72 -12 -3 -4 -11 25 -26 23 -12 44 -26 47 -31 8 -13 -48
-52 -82 -56 -15 -2 -29 -4 -32 -4 -3 -1 2 -6 10 -11 24 -16 53 -11 90 13 l34
24 55 -57 c60 -60 105 -80 183 -80 91 0 162 40 199 112 28 55 24 105 -13 180
l-33 64 62 0 c76 0 108 16 127 63 15 38 10 86 -13 145 -6 16 -10 30 -9 31 2 2
29 -2 60 -8 44 -8 71 -7 111 3 52 12 56 12 103 -16 120 -70 186 -171 192 -292
7 -130 -23 -230 -95 -319 -19 -24 -30 -43 -24 -43 23 0 71 54 99 114 55 115
67 254 31 351 -26 69 -110 163 -185 205 -30 18 -54 32 -54 34 0 1 9 19 20 41
23 46 26 113 6 178 l-14 46 69 7 c114 11 167 67 176 188 4 52 -1 79 -36 185
-23 68 -41 130 -41 137 0 8 14 41 30 74 17 33 37 88 45 122 38 159 92 274 159
336 62 57 162 108 267 137 98 26 164 28 240 5z m-1111 -325 c335 -129 315
-113 335 -261 8 -54 23 -130 35 -169 12 -38 30 -99 41 -135 21 -68 20 -142 -3
-184 -28 -51 -95 -86 -167 -86 l-49 0 -31 98 c-17 53 -35 115 -41 137 -13 54
-44 82 -240 214 -116 77 -175 111 -195 111 -16 0 -56 -11 -89 -24 -52 -21
-210 -49 -226 -40 -3 1 -3 32 0 68 5 59 9 69 44 105 28 28 71 54 145 86 57 26
139 66 180 91 42 24 85 44 96 44 11 0 85 -25 165 -55z m-190 -373 c52 -37 115
-79 140 -94 63 -37 123 -86 136 -111 6 -12 14 -39 18 -60 4 -21 27 -97 52
-170 55 -158 60 -223 23 -280 -13 -20 -34 -41 -47 -47 -36 -16 -123 -12 -162
8 -34 17 -36 21 -70 153 -19 75 -42 147 -51 160 -11 17 -52 38 -130 68 -131
50 -139 54 -234 108 -117 67 -153 66 -268 -8 -33 -22 -64 -39 -68 -39 -14 0
-21 58 -14 114 9 68 50 120 132 167 49 28 72 34 179 45 78 8 139 20 166 33 73
33 94 28 198 -47z m5897 -197 c190 -224 256 -331 368 -598 105 -252 188 -579
202 -807 10 -162 10 -629 0 -745 -27 -298 -90 -576 -180 -788 -23 -54 -37 -48
-37 17 0 49 -23 140 -62 241 -30 81 -101 229 -120 253 -6 7 -8 15 -6 18 14 13
164 -196 182 -253 16 -51 34 -19 82 152 44 152 63 308 71 560 4 152 2 233 -11
340 -9 77 -21 183 -27 235 -14 129 -27 220 -46 315 -18 93 -84 330 -111 395
-57 139 -281 597 -316 645 -27 36 -72 114 -58 100 5 -5 36 -41 69 -80z m-6202
-108 c55 -31 149 -72 208 -93 125 -43 126 -43 156 -181 11 -48 34 -129 50
-178 40 -123 46 -159 31 -195 -14 -33 -52 -50 -116 -50 -45 0 -68 15 -80 52
-3 12 -20 43 -36 69 -24 39 -39 52 -81 68 -29 10 -103 42 -166 70 -72 33 -127
51 -152 51 -41 0 -169 -61 -223 -107 l-30 -25 -17 21 c-10 12 -30 54 -45 94
-63 161 -10 294 144 364 31 15 76 39 99 55 92 62 122 61 258 -15z m4687 -18
c171 -37 238 -114 246 -284 5 -106 -12 -182 -59 -271 -66 -125 -172 -232 -308
-312 -112 -65 -458 -171 -661 -202 -92 -14 -311 -14 -406 -1 -184 27 -461 108
-644 189 -236 105 -416 241 -501 381 -23 38 -24 37 95 45 71 5 99 12 139 34
61 33 92 71 82 101 -7 22 -71 61 -100 61 -24 0 -18 17 16 41 25 17 50 23 108
26 90 5 174 -15 416 -102 391 -139 389 -139 510 -140 l110 0 95 49 c105 54
296 184 379 258 126 114 313 163 483 127z m-2425 -190 c104 -41 125 -61 98
-88 -13 -13 -23 -13 -77 -3 -123 25 -200 79 -168 117 18 22 35 19 147 -26z
m-809 -316 c58 -36 102 -97 104 -143 2 -56 -47 -192 -134 -370 -44 -91 -84
-180 -88 -199 -17 -68 31 -110 87 -75 63 40 117 91 130 123 16 37 7 57 -11 27
-40 -68 -140 -144 -172 -132 -26 10 -10 62 65 213 38 76 74 156 82 178 7 22
14 41 14 42 1 1 38 -32 83 -74 79 -73 82 -78 82 -120 0 -127 -113 -420 -216
-564 -44 -60 -109 -113 -181 -147 -56 -26 -63 -27 -238 -27 -287 1 -337 22
-402 164 -19 40 -32 75 -30 77 2 2 46 -10 98 -26 97 -31 179 -48 167 -35 -4 4
-92 36 -195 70 -287 96 -333 121 -333 183 l0 30 98 7 c233 17 378 73 515 196
111 100 224 293 256 439 13 56 35 109 72 169 19 31 23 33 61 28 22 -3 61 -18
86 -34z m2707 -562 c17 -5 59 -21 95 -34 259 -100 421 -161 455 -172 22 -7 85
-29 140 -50 55 -20 143 -51 195 -69 222 -77 396 -190 453 -295 31 -56 38 -144
17 -221 -16 -60 -85 -196 -152 -300 -89 -138 -273 -320 -323 -320 -27 0 -178
160 -222 235 -23 39 -43 77 -45 86 -2 9 31 53 73 100 142 156 199 238 199 282
0 43 -57 82 -207 141 -79 31 -147 56 -153 56 -19 0 -284 111 -405 170 -205 99
-286 178 -284 277 1 57 11 73 60 99 50 26 62 28 104 15z m-1019 -106 c55 -14
132 -41 173 -61 145 -68 265 -227 292 -388 16 -96 5 -355 -20 -471 -10 -49
-22 -106 -26 -125 -13 -68 -60 -196 -92 -249 -18 -30 -33 -66 -33 -81 0 -41
-69 -149 -145 -226 -79 -79 -127 -100 -214 -92 -76 7 -212 81 -287 154 -75 74
-171 218 -214 321 -30 71 -59 214 -75 363 -9 83 10 273 36 370 45 168 171 340
350 478 17 13 84 29 130 31 15 1 71 -10 125 -24z m-522 -252 c-76 -110 -127
-247 -136 -360 -2 -29 -12 -36 -163 -116 -205 -109 -333 -160 -401 -159 -77 2
-238 61 -387 143 -126 68 -216 127 -217 140 0 4 14 12 32 20 73 30 199 184
249 303 l22 54 63 -46 c142 -106 308 -192 368 -192 17 0 61 11 98 24 69 25
448 211 489 240 13 9 25 16 26 16 2 0 -18 -30 -43 -67z m2223 -457 c78 -14
126 -33 121 -48 -12 -31 -204 -235 -214 -226 -12 13 -16 142 -5 170 13 35 54
61 92 60 31 -1 40 14 12 20 -35 7 -93 -17 -112 -47 -63 -104 -17 -263 131
-446 123 -153 236 -217 363 -207 73 6 105 35 105 92 0 23 -5 48 -10 56 -7 11
-10 0 -10 -37 0 -45 -4 -55 -25 -69 -31 -20 -115 -22 -169 -4 l-39 12 64 57
c84 74 159 147 159 156 0 14 39 55 44 47 11 -18 64 -177 75 -227 29 -127 15
-167 -79 -217 -106 -57 -184 -71 -369 -67 l-166 4 -3 -26 c-2 -20 4 -32 25
-46 42 -29 114 -53 157 -53 58 0 39 22 -31 36 -62 13 -123 38 -123 52 0 5 32
4 71 -1 46 -7 107 -6 177 0 59 6 108 10 110 8 1 -1 -10 -39 -25 -85 -19 -57
-36 -89 -53 -101 -37 -27 -169 -51 -211 -39 -19 6 -50 10 -69 10 -31 1 -80 12
-203 50 -76 23 -282 252 -339 376 -20 45 -22 63 -22 224 0 102 5 192 12 215
18 64 64 100 156 125 43 11 81 19 83 16 3 -2 0 -55 -5 -118 -9 -101 -20 -157
-53 -262 -11 -36 -2 -49 14 -21 20 33 56 180 61 247 10 124 27 231 42 260 35
67 104 81 261 54z m-815 -192 c14 -8 47 -32 73 -54 50 -43 114 -80 140 -80 13
0 15 -9 10 -47 -14 -114 -12 -249 5 -319 20 -85 47 -133 133 -236 147 -174
215 -219 380 -253 48 -10 87 -22 87 -26 0 -4 -18 -29 -40 -54 -125 -144 -257
-235 -396 -272 -92 -24 -308 -24 -374 0 -51 19 -60 20 -60 9 0 -19 75 -43 174
-54 l109 -12 -54 -48 c-30 -26 -49 -48 -43 -48 31 0 85 34 111 69 23 33 35 40
73 45 110 13 168 36 283 108 53 34 71 32 81 -7 6 -25 -6 -88 -21 -111 -5 -6
-60 -38 -123 -71 -63 -33 -144 -76 -180 -96 -77 -42 -127 -53 -172 -38 -32 10
-117 26 -205 37 -70 9 -162 67 -288 184 -27 24 -32 38 -44 119 -12 85 -17 97
-72 181 -106 162 -111 181 -84 295 20 83 19 141 -4 173 -27 39 -61 121 -61
147 0 56 149 229 238 274 38 19 59 21 249 23 147 1 189 3 143 8 -36 4 -122 8
-192 9 -71 0 -128 4 -128 7 0 11 110 128 138 146 29 19 65 17 114 -8z m-1025
-855 c66 -131 175 -446 223 -639 4 -19 37 -152 73 -295 78 -313 151 -647 163
-739 3 -22 8 -44 11 -49 4 -6 -68 0 -73 7 0 0 -15 80 -33 176 -35 186 -50 260
-107 515 -20 88 -42 189 -49 225 -48 232 -115 457 -182 610 -53 121 -123 249
-155 287 l-33 37 65 -35 c59 -32 68 -42 97 -100z m489 -326 c32 -35 119 -168
167 -255 32 -58 128 -282 203 -478 14 -36 36 -89 50 -118 13 -29 24 -57 24
-63 0 -5 10 -31 21 -57 21 -45 75 -187 87 -226 3 -13 1 -17 -9 -13 -8 3 -76
20 -151 39 l-137 33 -19 65 c-36 120 -102 366 -168 630 -43 171 -104 446 -104
468 0 8 14 -2 36 -25z m1120 -324 c29 -32 190 -159 271 -213 40 -26 78 -55 85
-63 11 -14 8 -15 -22 -8 -19 4 -59 20 -87 36 -29 16 -79 43 -110 61 -77 42
-233 163 -222 171 17 14 55 37 60 37 3 0 14 -10 25 -21z m-458 -105 c34 -7 34
-7 102 -189 118 -317 175 -464 225 -585 31 -74 65 -161 76 -194 12 -32 28 -70
35 -85 8 -14 14 -29 14 -33 0 -3 27 -64 60 -134 33 -70 59 -128 58 -130 -2 -1
-18 1 -37 4 -30 7 -36 14 -65 87 -29 71 -124 287 -177 400 -22 48 -140 352
-176 455 -8 25 -29 74 -45 110 -17 36 -52 118 -79 183 -50 122 -50 123 9 111z
m-823 -756 c27 -154 31 -188 21 -188 -6 0 -58 16 -116 35 -114 38 -210 55
-210 37 0 -6 19 -13 43 -17 23 -4 89 -22 147 -41 165 -53 199 -63 295 -85 136
-32 173 -25 340 56 162 80 150 73 142 82 -4 3 -42 -10 -86 -30 l-79 -35 -13
31 c-6 18 -18 46 -25 62 -43 100 -44 105 -26 105 9 0 81 -17 160 -38 l144 -37
27 -72 28 -71 -65 -48 c-84 -61 -239 -209 -258 -245 -20 -39 -18 -84 7 -157
23 -69 44 -89 128 -121 29 -11 64 -27 77 -36 l25 -16 -27 -37 c-15 -20 -45
-56 -67 -79 -38 -40 -40 -45 -39 -101 0 -39 8 -74 21 -100 l20 -40 -37 -18
c-72 -34 -132 -30 -306 21 -139 40 -351 117 -366 132 -5 5 234 -3 375 -13 66
-5 78 -3 67 8 -14 14 -188 25 -537 33 -121 3 -230 8 -242 10 -43 10 -172 243
-158 284 3 9 22 29 43 44 20 15 73 63 117 106 l80 79 35 -13 c111 -42 264 -94
308 -105 51 -12 102 -42 102 -60 0 -5 -14 -17 -32 -26 -30 -15 -96 -24 -321
-40 -60 -5 -85 -10 -78 -17 12 -12 318 8 381 24 37 9 80 42 80 60 0 31 -56 60
-226 114 -98 32 -188 64 -199 70 -11 7 -45 20 -75 29 -101 29 -180 107 -180
177 0 52 151 210 247 259 43 21 91 35 155 44 145 21 146 21 153 -16z m1406
-148 c300 -53 357 -68 464 -124 32 -17 76 -47 97 -67 48 -46 106 -167 114
-242 7 -56 6 -59 -27 -93 -19 -20 -74 -60 -124 -91 -253 -155 -283 -184 -236
-227 28 -26 106 -29 190 -9 41 10 76 24 79 31 4 13 -5 13 -88 -7 -71 -17 -135
-14 -161 8 l-23 19 47 33 c27 19 98 66 160 105 111 71 112 72 126 50 26 -38
114 -115 168 -148 37 -23 59 -45 73 -73 18 -36 18 -45 6 -90 -16 -63 -30 -86
-70 -113 -38 -26 -164 -65 -301 -93 -153 -31 -328 -76 -450 -116 -256 -83
-350 -92 -455 -42 -74 35 -234 139 -298 194 -53 46 -90 117 -97 187 l-6 53 68
83 c63 78 69 82 98 76 16 -3 35 -10 40 -14 6 -4 33 -15 60 -25 71 -26 205
-105 205 -121 0 -7 -12 -20 -27 -28 -30 -15 -182 -46 -226 -46 -35 0 -35 -16
0 -23 63 -12 238 30 266 64 33 41 24 52 -94 122 -42 25 -94 50 -115 57 -22 6
-48 15 -59 20 -11 5 -49 20 -85 34 -101 37 -197 83 -206 98 -14 21 -44 121
-44 146 0 37 24 73 92 138 64 61 222 194 231 194 3 0 22 -51 42 -112 21 -62
42 -121 47 -131 5 -10 7 -21 4 -24 -8 -8 -132 64 -162 94 -32 32 -44 22 -17
-15 43 -58 219 -136 368 -163 98 -17 281 -39 335 -39 57 0 181 28 244 54 48
20 86 59 86 89 0 25 -86 167 -101 167 -15 0 -11 -10 31 -73 47 -70 50 -109 10
-138 -37 -28 -137 -60 -200 -66 l-55 -5 -32 63 c-17 35 -40 84 -51 109 -11 25
-38 84 -60 132 -22 48 -43 101 -47 117 l-7 31 60 0 c32 0 83 -4 113 -10z
m-1873 -872 c32 -20 47 -22 148 -19 107 2 115 1 205 -34 191 -75 253 -122 362
-275 88 -123 148 -260 177 -405 26 -122 3 -455 -32 -476 -24 -15 -312 -107
-383 -123 -79 -17 -307 -48 -313 -42 -2 2 9 50 24 107 23 88 26 114 20 187
-12 157 -91 333 -227 502 -68 85 -182 202 -229 233 -87 59 -112 74 -174 105
-78 39 -165 61 -244 62 -38 0 -53 4 -50 13 7 20 82 56 171 82 82 24 399 90
467 98 19 2 37 5 39 5 2 1 20 -8 39 -20z m-568 -212 c36 -7 88 -24 115 -39
l50 -26 -41 -1 c-135 -1 -414 -80 -600 -170 -177 -85 -358 -220 -517 -385 -78
-80 -107 -126 -141 -222 -35 -96 -38 -130 -22 -198 8 -33 13 -61 12 -62 -7 -8
-107 67 -121 91 -30 49 -22 153 16 239 81 177 229 341 419 462 119 77 392 213
600 301 63 27 131 30 230 10z m3437 -94 c59 -31 276 -174 372 -245 90 -66 359
-322 349 -332 -3 -3 -36 6 -74 19 -128 45 -237 53 -409 32 -233 -29 -359 -89
-528 -255 -147 -143 -224 -263 -300 -466 -27 -71 -61 -262 -62 -347 l0 -47
-105 56 c-148 80 -243 140 -357 226 -164 125 -174 136 -183 192 -27 174 56
457 190 654 95 140 336 354 475 423 136 68 306 106 480 106 95 1 127 -3 152
-16z m268 -86 c176 -99 473 -377 539 -504 9 -18 14 -32 10 -32 -12 0 -64 35
-64 43 0 16 -216 230 -305 302 -49 39 -143 107 -208 150 -64 42 -119 81 -122
85 -11 18 93 -13 150 -44z m320 -481 c137 -36 204 -68 308 -146 222 -166 413
-409 486 -615 41 -116 54 -316 26 -403 -5 -18 -115 -114 -122 -107 -2 2 2 47
8 102 12 100 11 113 -21 298 -14 80 -65 210 -109 276 -88 135 -434 442 -606
539 -44 24 -91 53 -105 63 l-24 19 54 -6 c30 -4 78 -13 105 -20z m-5229 -440
c33 -16 76 -36 95 -43 90 -36 348 -93 499 -111 171 -21 269 -31 277 -30 4 1
42 0 83 -1 87 -3 89 -2 -155 -45 -181 -33 -206 -33 -360 -4 -187 35 -296 67
-392 114 -120 59 -153 98 -153 181 l0 58 23 -44 c18 -36 34 -50 83 -75z m6070
-799 c-13 -43 -27 -64 -72 -105 -31 -29 -70 -59 -86 -67 -64 -33 -218 -87
-303 -105 -174 -39 -585 -23 -845 33 -124 26 -308 83 -341 105 -160 109 -244
173 -226 173 4 0 36 -12 70 -26 63 -27 286 -96 367 -115 181 -41 540 -79 751
-79 132 0 333 29 404 59 129 54 266 148 281 193 16 47 16 -11 0 -66z"/>
<path d="M4476 8817 c-30 -30 -56 -145 -56 -248 0 -202 78 -478 158 -562 55
-59 125 -74 160 -36 31 32 55 134 55 229 0 150 -59 413 -119 531 -47 93 -147
137 -198 86z m162 -267 c44 -106 -29 -190 -92 -107 -21 28 -26 45 -26 95 0 51
3 63 22 76 19 14 24 14 49 -1 16 -10 36 -36 47 -63z m75 8 c44 -198 52 -258
52 -373 -1 -105 -10 -148 -41 -185 -32 -37 -50 -38 -100 -2 -45 34 -94 123
-102 187 -6 59 12 64 38 10 27 -56 69 -87 111 -83 27 3 34 9 46 43 19 51 12
174 -16 313 -20 96 -21 129 -2 117 5 -2 11 -15 14 -27z"/>
<path d="M4950 7760 c0 -5 16 -10 35 -10 38 0 40 -5 25 -61 -22 -78 -162 -256
-265 -337 -52 -41 -199 -112 -231 -112 -33 0 -124 -24 -124 -33 0 -14 111 4
185 30 52 19 101 27 190 33 179 10 242 29 355 103 181 120 174 334 -11 387
-45 13 -159 13 -159 0z m231 -66 c33 -32 53 -92 45 -136 -12 -61 -20 -65 -64
-30 -59 47 -71 39 -16 -11 l48 -43 -20 -26 c-10 -14 -33 -35 -51 -46 l-32 -21
-29 37 c-38 46 -50 39 -17 -10 27 -39 23 -48 -27 -67 -23 -9 -29 -7 -44 17
-11 16 -19 22 -22 14 -2 -7 2 -19 8 -28 17 -20 11 -24 -62 -40 -75 -16 -178
-18 -178 -4 0 6 4 10 10 10 13 0 164 154 216 222 43 55 94 150 94 175 0 6 7
18 15 27 14 13 20 13 58 0 23 -8 54 -26 68 -40z"/>
</g>
</svg>
